<svg width="39" height="32" viewBox="0 0 39 32" fill="none" xmlns="http://www.w3.org/2000/svg">
<path fill-rule="evenodd" clip-rule="evenodd" d="M7.31429 0H24.6857C25.1907 0 25.6 0.40934 25.6 0.914286V5.48571C25.6 5.99066 26.0094 6.4 26.5143 6.4H31.0857C31.5907 6.4 32 6.80934 32 7.31429V23.7714C32 24.2764 32.4094 24.6857 32.9143 24.6857H37.4857C37.9907 24.6857 38.4 25.0951 38.4 25.6V31.0857C38.4 31.5907 37.9907 32 37.4857 32H32C31.4951 32 31.0857 31.5907 31.0857 31.0857V26.5143C31.0857 26.0093 30.6764 25.6 30.1714 25.6H26.5143C26.0094 25.6 25.6 26.0093 25.6 26.5143V31.0857C25.6 31.5907 25.1907 32 24.6857 32H7.31429C6.80934 32 6.4 31.5907 6.4 31.0857V26.5143C6.4 26.0093 5.99066 25.6 5.48572 25.6H0.914286C0.40934 25.6 0 25.1907 0 24.6857V7.31429C0 6.80934 0.40934 6.4 0.914286 6.4H5.48572C5.99066 6.4 6.4 5.99066 6.4 5.48571V0.914286C6.4 0.40934 6.80934 0 7.31429 0ZM24.6857 9.31429C24.6857 8.20972 23.7903 7.31429 22.6857 7.31429H9.31429C8.20972 7.31429 7.31429 8.20972 7.31429 9.31429V22.6857C7.31429 23.7903 8.20972 24.6857 9.31429 24.6857H22.6857C23.7903 24.6857 24.6857 23.7903 24.6857 22.6857V9.31429Z" fill="#538DFF"/>
</svg>
