<svg width="16" height="16" viewBox="0 0 16 16" fill="none" xmlns="http://www.w3.org/2000/svg">
<path id="Vector" d="M15.0697 2.79083C15.5835 2.27705 15.5835 1.44406 15.0697 0.930278C14.5559 0.4165 13.7229 0.4165 13.2092 0.930278L9.41421 4.72523C8.63317 5.50628 7.36684 5.50628 6.58579 4.72523L2.79083 0.930278C2.27706 0.4165 1.44406 0.4165 0.930278 0.930278C0.4165 1.44406 0.4165 2.27706 0.930278 2.79083L4.72523 6.58579C5.50628 7.36683 5.50628 8.63317 4.72523 9.41421L0.930278 13.2092C0.416499 13.7229 0.4165 14.5559 0.930278 15.0697C1.44406 15.5835 2.27706 15.5835 2.79083 15.0697L6.58579 11.2748C7.36684 10.4937 8.63317 10.4937 9.41421 11.2748L13.2092 15.0697C13.7229 15.5835 14.5559 15.5835 15.0697 15.0697C15.5835 14.5559 15.5835 13.7229 15.0697 13.2092L11.2748 9.41421C10.4937 8.63317 10.4937 7.36684 11.2748 6.58579L15.0697 2.79083Z" fill="#FBFBFB"/>
</svg>
