<svg width="16" height="16" viewBox="0 0 16 16" fill="none" xmlns="http://www.w3.org/2000/svg">
<path id="Vector" d="M15.0697 2.79083C15.5835 2.27705 15.5835 1.44406 15.0697 0.930278V0.930278C14.5559 0.4165 13.7229 0.4165 13.2092 0.930278L11.0697 3.06972C9.37436 4.76508 6.62564 4.76508 4.93028 3.06972L2.79083 0.930278C2.27706 0.4165 1.44406 0.4165 0.930278 0.930278V0.930278C0.4165 1.44406 0.4165 2.27706 0.930278 2.79083L3.06972 4.93028C4.76508 6.62564 4.76508 9.37436 3.06972 11.0697L0.930278 13.2092C0.416499 13.7229 0.4165 14.5559 0.930278 15.0697V15.0697C1.44406 15.5835 2.27706 15.5835 2.79083 15.0697L4.93028 12.9303C6.62564 11.2349 9.37436 11.2349 11.0697 12.9303L13.2092 15.0697C13.7229 15.5835 14.5559 15.5835 15.0697 15.0697V15.0697C15.5835 14.5559 15.5835 13.7229 15.0697 13.2092L12.9303 11.0697C11.2349 9.37436 11.2349 6.62564 12.9303 4.93028L15.0697 2.79083Z" fill="#eee"/>
</svg>
